<mxfile host="app.diagrams.net" modified="2023-08-25T10:11:06.311Z" agent="Mozilla/5.0 (Macintosh; Intel Mac OS X 10_15_7) AppleWebKit/605.1.15 (KHTML, like Gecko) Version/16.3 Safari/605.1.15" etag="ueQ8LPf3veZWLUzTLbBF" version="21.6.9" type="github">
  <diagram name="Страница — 1" id="mDwIkd1vVMeAIP44pAh7">
    <mxGraphModel dx="1242" dy="827" grid="1" gridSize="10" guides="1" tooltips="1" connect="1" arrows="1" fold="1" page="1" pageScale="1" pageWidth="827" pageHeight="1169" math="0" shadow="0">
      <root>
        <mxCell id="0" />
        <mxCell id="1" parent="0" />
        <mxCell id="lWOKhxxxpJjdyGa0jq4G-18" style="edgeStyle=orthogonalEdgeStyle;rounded=0;orthogonalLoop=1;jettySize=auto;html=1;entryX=0;entryY=0.5;entryDx=0;entryDy=0;entryPerimeter=0;" edge="1" parent="1" source="lWOKhxxxpJjdyGa0jq4G-1" target="lWOKhxxxpJjdyGa0jq4G-9">
          <mxGeometry relative="1" as="geometry" />
        </mxCell>
        <mxCell id="lWOKhxxxpJjdyGa0jq4G-1" value="Proxy Server&lt;br&gt;IP: 56.123.45.21" style="sketch=0;pointerEvents=1;shadow=0;dashed=0;html=1;strokeColor=none;fillColor=#505050;labelPosition=center;verticalLabelPosition=bottom;verticalAlign=top;outlineConnect=0;align=center;shape=mxgraph.office.servers.reverse_proxy;" vertex="1" parent="1">
          <mxGeometry x="500" y="440" width="70" height="80" as="geometry" />
        </mxCell>
        <mxCell id="lWOKhxxxpJjdyGa0jq4G-13" style="edgeStyle=orthogonalEdgeStyle;rounded=0;orthogonalLoop=1;jettySize=auto;html=1;entryX=0;entryY=0.5;entryDx=0;entryDy=0;entryPerimeter=0;" edge="1" parent="1" source="lWOKhxxxpJjdyGa0jq4G-2" target="lWOKhxxxpJjdyGa0jq4G-4">
          <mxGeometry relative="1" as="geometry" />
        </mxCell>
        <mxCell id="lWOKhxxxpJjdyGa0jq4G-2" value="Host&lt;br&gt;IP: 187.234.43.34" style="image;points=[];aspect=fixed;html=1;align=center;shadow=0;dashed=0;image=img/lib/allied_telesis/computer_and_terminals/Personal_Computer.svg;" vertex="1" parent="1">
          <mxGeometry x="140" y="185" width="51.65" height="70" as="geometry" />
        </mxCell>
        <mxCell id="lWOKhxxxpJjdyGa0jq4G-3" value="example.com&lt;br&gt;видит запрос от &lt;font color=&quot;#ff2600&quot;&gt;187.234.43.34&lt;/font&gt;" style="verticalLabelPosition=bottom;html=1;verticalAlign=top;align=center;strokeColor=none;fillColor=#00BEF2;shape=mxgraph.azure.website_generic;pointerEvents=1;" vertex="1" parent="1">
          <mxGeometry x="670" y="180" width="60" height="60" as="geometry" />
        </mxCell>
        <mxCell id="lWOKhxxxpJjdyGa0jq4G-14" style="edgeStyle=orthogonalEdgeStyle;rounded=0;orthogonalLoop=1;jettySize=auto;html=1;entryX=-0.067;entryY=0.667;entryDx=0;entryDy=0;entryPerimeter=0;dashed=1;" edge="1" parent="1" source="lWOKhxxxpJjdyGa0jq4G-4" target="lWOKhxxxpJjdyGa0jq4G-3">
          <mxGeometry relative="1" as="geometry" />
        </mxCell>
        <mxCell id="lWOKhxxxpJjdyGa0jq4G-4" value="ISP&lt;br&gt;Провайдер видит запрос&lt;br&gt;от 187.234.43.34 к &lt;font color=&quot;#ff0000&quot;&gt;example.com&lt;/font&gt;" style="outlineConnect=0;dashed=0;verticalLabelPosition=bottom;verticalAlign=top;align=center;html=1;shape=mxgraph.aws3.office_building;fillColor=#7D7C7C;gradientColor=none;" vertex="1" parent="1">
          <mxGeometry x="410" y="170" width="40" height="100" as="geometry" />
        </mxCell>
        <mxCell id="lWOKhxxxpJjdyGa0jq4G-16" style="edgeStyle=orthogonalEdgeStyle;rounded=0;orthogonalLoop=1;jettySize=auto;html=1;entryX=0;entryY=0.5;entryDx=0;entryDy=0;entryPerimeter=0;" edge="1" parent="1" source="lWOKhxxxpJjdyGa0jq4G-5" target="lWOKhxxxpJjdyGa0jq4G-8">
          <mxGeometry relative="1" as="geometry" />
        </mxCell>
        <mxCell id="lWOKhxxxpJjdyGa0jq4G-5" value="Host&lt;br&gt;IP: 187.234.43.34" style="image;points=[];aspect=fixed;html=1;align=center;shadow=0;dashed=0;image=img/lib/allied_telesis/computer_and_terminals/Personal_Computer.svg;" vertex="1" parent="1">
          <mxGeometry x="140" y="455" width="51.65" height="70" as="geometry" />
        </mxCell>
        <mxCell id="lWOKhxxxpJjdyGa0jq4G-17" style="edgeStyle=orthogonalEdgeStyle;rounded=0;orthogonalLoop=1;jettySize=auto;html=1;" edge="1" parent="1" source="lWOKhxxxpJjdyGa0jq4G-8">
          <mxGeometry relative="1" as="geometry">
            <mxPoint x="490" y="490" as="targetPoint" />
          </mxGeometry>
        </mxCell>
        <mxCell id="lWOKhxxxpJjdyGa0jq4G-8" value="ISP&lt;br&gt;Провайдер видит запрос&lt;br&gt;от 187.234.43.34 к &lt;font color=&quot;#00cc00&quot;&gt;56.123.45.21&lt;/font&gt;" style="outlineConnect=0;dashed=0;verticalLabelPosition=bottom;verticalAlign=top;align=center;html=1;shape=mxgraph.aws3.office_building;fillColor=#7D7C7C;gradientColor=none;" vertex="1" parent="1">
          <mxGeometry x="340" y="440" width="40" height="100" as="geometry" />
        </mxCell>
        <mxCell id="lWOKhxxxpJjdyGa0jq4G-9" value="example.com&lt;br&gt;видит запрос от &lt;font color=&quot;#00cc00&quot;&gt;56.123.45.21&lt;/font&gt;" style="verticalLabelPosition=bottom;html=1;verticalAlign=top;align=center;strokeColor=none;fillColor=#00BEF2;shape=mxgraph.azure.website_generic;pointerEvents=1;" vertex="1" parent="1">
          <mxGeometry x="670" y="450" width="60" height="60" as="geometry" />
        </mxCell>
        <mxCell id="lWOKhxxxpJjdyGa0jq4G-15" value="На этом участке соединение &lt;br&gt;может быть заблокировано&lt;br&gt;либо провайдером, &lt;br&gt;(доступ к example.com запрещен),&lt;br&gt;либо самим ресурсом &lt;br&gt;(доступ для ip=187.234.43.34 запрещен)&lt;br&gt;&amp;nbsp;" style="text;html=1;align=center;verticalAlign=middle;resizable=0;points=[];autosize=1;strokeColor=none;fillColor=none;" vertex="1" parent="1">
          <mxGeometry x="440" y="108" width="250" height="110" as="geometry" />
        </mxCell>
      </root>
    </mxGraphModel>
  </diagram>
</mxfile>
